<?xml version="1.0" encoding="UTF-8" standalone="no"?>
<svg xmlns="http://www.w3.org/2000/svg" version="1.2" baseProfile="tiny" viewBox="0.00 0.00 804.00 376.00" width="804.00" height="376.00">
<g stroke-width="2.00" fill="none" stroke-linecap="butt">
<path stroke="#a9c4fa" vector-effect="non-scaling-stroke" d="
  M 127.22 313.40
  L 127.26 300.99
  Q 127.26 300.43 127.76 300.18
  Q 144.83 291.55 161.30 281.85
  C 172.96 274.98 185.39 265.90 193.07 254.56
  C 210.02 229.54 214.41 195.88 210.25 166.50
  Q 208.78 156.09 203.96 146.84
  C 202.85 144.70 201.42 143.15 199.78 141.40
  Q 199.43 141.03 199.75 140.63
  C 201.08 138.99 202.53 137.49 203.59 135.78
  C 215.82 116.18 214.24 89.60 206.92 68.47
  C 204.83 62.43 200.36 57.47 199.26 51.17
  C 197.19 39.38 204.29 28.67 215.03 24.02
  Q 217.49 22.95 217.12 20.45
  C 216.16 13.99 203.05 12.45 198.25 12.56
  Q 187.02 12.83 176.94 17.42
  C 173.14 19.16 170.29 21.76 167.65 24.88
  A 1.14 1.13 34.7 0 1 166.23 25.13
  C 147.96 14.78 121.54 15.66 102.00 21.02
  Q 96.91 22.42 91.74 25.83
  Q 91.28 26.14 90.95 25.68
  Q 88.87 22.80 85.93 20.83
  C 76.33 14.39 55.49 6.59 46.37 17.24
  C 44.76 19.11 44.30 22.05 46.58 23.43
  Q 51.52 26.41 54.94 29.06
  C 57.87 31.32 63.65 37.38 63.51 41.51
  Q 63.29 47.94 59.82 53.81
  C 54.94 62.09 49.27 72.26 46.57 82.76
  C 43.90 93.11 44.85 106.14 46.99 116.25
  Q 48.41 122.93 53.57 134.79
  Q 53.79 135.28 53.35 135.61
  Q 35.78 148.55 24.38 166.79
  C 14.07 183.28 7.66 204.79 6.49 223.75
  Q 4.99 248.16 8.46 268.50
  Q 10.97 283.23 11.87 286.92
  Q 14.40 297.35 22.23 324.25
  Q 24.57 332.29 31.23 359.62
  C 31.95 362.54 34.75 362.43 36.99 361.68
  Q 37.49 361.51 37.72 361.03
  C 40.55 355.04 43.29 351.15 49.64 345.39
  C 60.48 335.55 73.40 327.97 86.31 321.19
  A 0.21 0.21 0.0 0 1 86.62 321.39
  C 86.44 324.71 84.63 337.60 92.00 334.50
  C 99.64 331.30 107.28 329.52 114.04 335.25
  Q 116.99 337.74 120.01 347.38
  Q 121.03 350.61 124.36 350.05
  L 125.13 349.92
  A 2.61 2.61 0.0 0 0 127.25 346.82
  C 124.44 333.18 116.60 323.58 101.69 324.47
  C 99.48 324.60 97.06 325.40 94.66 325.80
  Q 94.00 325.91 94.00 325.25
  L 94.00 317.91
  A 1.04 1.04 0.0 0 1 94.57 316.98
  L 119.51 304.19
  A 0.32 0.32 0.0 0 1 119.98 304.47
  Q 119.98 313.15 120.20 322.00
  C 120.28 325.03 124.00 326.40 126.19 324.41
  Q 132.81 318.38 141.13 315.61
  C 151.03 312.30 158.53 317.02 163.31 325.60
  Q 165.15 328.92 168.33 326.84
  L 168.91 326.46
  A 2.99 2.98 58.6 0 0 169.87 322.50
  C 164.17 312.42 155.91 305.67 143.75 307.46
  Q 135.04 308.74 127.79 313.69
  Q 127.22 314.08 127.22 313.40"
/>
<path stroke="#a9c4fa" vector-effect="non-scaling-stroke" d="
  M 798.10 83.48
  A 18.52 18.52 0.0 0 0 779.58 64.96
  A 18.52 18.52 0.0 0 0 761.06 83.48
  A 18.52 18.52 0.0 0 0 779.58 102.00
  A 18.52 18.52 0.0 0 0 798.10 83.48"
/>
<path stroke="#a9c4fa" vector-effect="non-scaling-stroke" d="
  M 296.24 65.57
  A 0.32 0.32 0.0 0 0 295.92 65.25
  L 270.32 65.25
  A 0.32 0.32 0.0 0 0 270.00 65.57
  L 270.00 312.19
  A 0.32 0.32 0.0 0 0 270.32 312.51
  L 295.92 312.51
  A 0.32 0.32 0.0 0 0 296.24 312.19
  L 296.24 65.57"
/>
<path stroke="#a9c4fa" vector-effect="non-scaling-stroke" d="
  M 390.48 174.52
  L 390.51 144.26
  Q 390.51 143.75 390.01 143.75
  L 366.96 143.74
  Q 366.50 143.74 366.50 144.20
  L 366.50 311.98
  Q 366.50 312.51 367.03 312.51
  L 390.75 312.49
  Q 391.25 312.49 391.25 311.99
  Q 391.25 266.88 391.25 221.78
  Q 391.25 208.53 392.70 202.36
  C 397.73 181.01 414.10 165.22 436.39 163.46
  C 458.85 161.69 476.14 170.23 484.27 191.70
  C 487.18 199.38 487.76 208.07 487.76 215.76
  Q 487.74 263.86 487.75 312.00
  Q 487.75 312.50 488.26 312.50
  L 512.03 312.50
  Q 512.52 312.50 512.52 312.01
  Q 512.50 259.76 512.40 207.50
  C 512.35 186.33 505.40 164.17 487.32 151.63
  C 467.00 137.52 435.37 137.20 414.41 149.90
  Q 399.55 158.91 390.77 174.60
  Q 390.48 175.11 390.48 174.52"
/>
<path stroke="#a9c4fa" vector-effect="non-scaling-stroke" d="
  M 638.61 284.93
  L 581.45 144.24
  Q 581.25 143.75 580.72 143.75
  L 554.53 143.75
  Q 553.98 143.75 554.20 144.25
  L 625.32 312.11
  Q 625.48 312.50 625.91 312.50
  L 651.22 312.50
  Q 651.74 312.50 651.95 312.02
  L 723.54 144.23
  Q 723.74 143.74 723.22 143.74
  L 698.02 143.74
  Q 697.49 143.74 697.28 144.24
  L 638.87 284.93
  Q 638.74 285.24 638.61 284.93"
/>
<path stroke="#a9c4fa" vector-effect="non-scaling-stroke" d="
  M 792.00 144.09
  A 0.35 0.35 0.0 0 0 791.65 143.74
  L 767.35 143.74
  A 0.35 0.35 0.0 0 0 767.00 144.09
  L 767.00 312.15
  A 0.35 0.35 0.0 0 0 767.35 312.50
  L 791.65 312.50
  A 0.35 0.35 0.0 0 0 792.00 312.15
  L 792.00 144.09"
/>
<path stroke="#a9c4fa" vector-effect="non-scaling-stroke" d="
  M 87.89 34.79
  C 86.00 31.31 85.50 29.30 81.44 26.55
  C 74.37 21.77 63.99 18.04 55.39 19.76
  Q 54.88 19.87 55.31 20.15
  C 64.64 26.35 73.64 36.58 70.03 47.99
  C 65.34 62.82 54.27 73.87 52.79 89.51
  C 50.90 109.47 56.56 131.65 71.08 146.42
  A 3.50 3.50 0.0 0 1 70.79 151.59
  L 70.27 152.02
  A 3.14 3.13 47.3 0 1 66.12 151.85
  Q 61.41 147.35 57.92 141.87
  A 0.24 0.24 0.0 0 0 57.56 141.82
  C 53.23 145.57 48.39 149.09 44.67 152.93
  C 18.20 180.29 10.53 218.46 14.34 255.51
  C 17.20 283.38 26.12 308.89 33.20 336.34
  Q 33.28 336.63 33.24 337.13
  Q 33.22 337.57 33.37 337.97
  Q 33.65 338.69 33.71 337.92
  Q 34.82 322.17 34.00 306.42
  C 33.60 298.77 33.87 293.08 37.55 287.25
  C 44.37 276.46 53.87 267.76 63.92 258.42
  Q 72.92 250.05 82.81 237.82
  C 96.74 220.59 104.11 201.09 101.76 177.96
  A 2.82 2.81 85.3 0 1 104.38 174.86
  L 105.29 174.80
  Q 108.94 174.57 109.27 178.22
  Q 111.79 206.48 97.13 230.18
  Q 88.43 244.24 81.97 250.72
  Q 67.30 265.43 52.57 280.07
  C 48.49 284.11 41.05 292.98 41.22 298.98
  C 41.64 314.18 42.30 328.97 40.48 344.14
  Q 40.41 344.66 40.76 344.28
  C 52.47 331.26 68.53 323.00 83.89 314.38
  Q 90.02 310.95 96.91 307.53
  Q 122.23 294.96 147.18 281.67
  C 155.74 277.11 165.77 270.94 172.04 265.81
  Q 181.32 258.22 183.68 255.16
  C 202.99 230.08 207.59 196.44 202.67 165.93
  C 201.77 160.37 198.97 148.06 193.43 145.90
  Q 190.47 144.74 189.92 144.10
  C 188.04 141.88 189.80 139.77 191.68 138.12
  C 201.12 129.82 204.91 116.50 205.22 104.25
  C 205.56 90.74 203.48 76.21 196.77 64.27
  C 193.92 59.20 192.12 55.99 191.68 51.25
  Q 190.22 35.32 201.90 23.90
  Q 203.59 22.25 205.38 20.67
  Q 205.70 20.39 205.27 20.38
  Q 203.57 20.34 199.26 20.07
  C 192.83 19.67 174.81 23.14 172.48 31.58
  C 171.22 36.10 168.33 35.65 165.14 33.09
  Q 163.00 31.38 160.26 30.20
  C 142.23 22.48 121.30 23.14 103.33 28.14
  Q 98.90 29.36 95.15 31.98
  Q 94.69 32.30 94.49 32.83
  Q 92.88 37.14 88.62 35.44
  Q 88.13 35.25 87.89 34.79"
/>
<path stroke="#a9c4fa" vector-effect="non-scaling-stroke" d="
  M 129.35 68.68
  A 0.28 0.27 -43.5 0 1 128.86 68.67
  C 126.44 63.61 122.76 57.87 117.93 54.80
  C 117.09 54.27 116.56 53.52 115.86 52.83
  Q 115.48 52.47 114.96 52.47
  Q 114.31 52.49 113.99 51.97
  Q 113.76 51.61 113.38 51.42
  Q 103.87 46.58 93.98 46.98
  C 74.86 47.75 65.30 63.94 62.84 81.01
  Q 59.73 102.55 67.20 122.56
  C 71.99 135.36 83.06 143.27 95.51 148.21
  C 112.41 154.91 131.19 157.33 149.02 153.06
  Q 165.05 149.23 176.14 139.63
  Q 184.26 132.61 187.81 125.77
  C 190.11 121.34 192.75 116.70 194.15 112.12
  C 200.19 92.40 196.44 68.34 179.49 54.60
  C 178.79 54.03 177.98 53.90 177.28 53.31
  C 172.17 48.97 161.55 46.19 154.95 47.65
  C 143.08 50.29 135.02 58.30 129.35 68.68"
/>
<path stroke="#a9c4fa" vector-effect="non-scaling-stroke" d="
  M 93.03 210.29
  Q 96.12 203.78 95.03 196.87
  Q 94.53 193.68 91.31 193.96
  L 90.51 194.03
  A 2.72 2.71 86.6 0 0 88.03 196.83
  C 88.34 205.32 86.20 214.96 75.47 213.59
  C 69.48 212.83 68.85 203.22 69.44 198.58
  Q 69.88 195.09 66.53 194.00
  L 65.90 193.79
  A 2.70 2.70 0.0 0 0 62.44 195.74
  Q 60.76 202.94 62.93 210.26
  C 66.55 222.48 80.99 224.17 89.60 216.26
  C 91.31 214.68 92.03 212.39 93.03 210.29"
/>
<path stroke="#a9c4fa" vector-effect="non-scaling-stroke" d="
  M 59.42 238.42
  C 56.64 242.65 48.57 245.16 45.28 239.85
  C 42.95 236.07 42.83 232.35 43.04 228.00
  C 43.21 224.63 42.09 222.55 38.52 222.75
  Q 38.02 222.78 37.66 223.12
  Q 35.69 224.91 35.54 227.51
  C 34.91 237.86 38.19 249.69 50.75 250.01
  C 64.49 250.37 70.26 237.29 68.73 225.15
  A 2.62 2.62 0.0 0 0 65.77 222.89
  L 65.04 222.99
  Q 61.75 223.45 61.84 226.77
  Q 62.04 234.43 59.42 238.42"
/>
<path stroke="#a9c4fa" vector-effect="non-scaling-stroke" d="
  M 171.09 58.16
  Q 170.76 57.58 170.11 57.51
  Q 169.71 57.47 169.37 57.29
  C 150.57 47.67 136.98 66.48 131.34 81.31
  A 1.57 1.56 82.8 0 1 130.77 82.05
  C 127.15 84.60 125.13 82.08 124.44 78.54
  C 121.36 62.80 106.54 52.36 90.94 54.90
  Q 80.74 56.55 75.76 65.84
  C 75.25 66.80 74.44 67.45 73.93 68.71
  C 67.42 84.98 67.89 102.99 73.78 119.23
  C 78.53 132.32 91.50 139.70 104.33 143.60
  C 120.59 148.54 137.15 149.73 153.08 144.19
  Q 163.21 140.66 170.55 134.68
  C 186.73 121.51 193.56 99.26 187.19 79.01
  C 186.69 77.40 185.82 75.78 185.21 74.09
  C 183.00 67.93 179.04 63.05 173.56 59.47
  Q 173.22 59.25 172.98 58.91
  Q 172.59 58.34 171.94 58.52
  Q 171.38 58.67 171.09 58.16"
/>
<path stroke="#a9c4fa" vector-effect="non-scaling-stroke" d="
  M 99.57 87.31
  C 100.93 87.91 102.19 89.10 103.63 90.11
  Q 107.25 92.66 108.03 99.58
  Q 108.42 103.08 111.93 102.78
  L 112.65 102.72
  A 2.84 2.83 -3.5 0 0 115.25 99.79
  Q 114.89 89.58 107.52 83.57
  C 106.85 83.02 105.97 82.91 105.28 82.29
  C 102.01 79.37 96.96 78.68 93.18 77.89
  C 90.55 77.34 88.17 77.62 85.55 77.42
  C 82.52 77.20 80.33 78.16 80.31 81.42
  Q 80.31 81.90 80.59 82.28
  L 81.92 84.06
  A 1.24 1.20 -15.5 0 0 82.82 84.55
  C 88.70 84.96 93.66 84.69 99.57 87.31"
/>
<path stroke="#a9c4fa" vector-effect="non-scaling-stroke" d="
  M 143.85 91.67
  Q 141.99 96.00 142.34 100.34
  A 2.79 2.78 8.6 0 0 144.10 102.72
  C 147.97 104.24 149.11 101.50 149.60 98.24
  C 151.23 87.13 162.68 84.96 172.67 84.86
  C 178.74 84.80 177.66 76.93 172.02 77.30
  Q 168.94 77.50 165.90 77.78
  C 156.60 78.63 147.73 82.65 143.85 91.67"
/>
<path stroke="#a9c4fa" vector-effect="non-scaling-stroke" d="
  M 128.90 129.57
  L 119.89 109.67
  A 0.42 0.41 87.7 0 0 119.67 109.46
  Q 115.54 107.61 113.62 111.11
  A 1.42 1.39 56.3 0 0 113.46 111.97
  Q 113.80 114.36 114.22 115.25
  Q 120.06 127.64 125.56 140.19
  C 127.11 143.74 131.46 144.33 133.03 140.30
  Q 137.18 129.62 141.35 118.94
  C 142.06 117.13 143.32 115.49 143.61 113.55
  C 144.50 107.70 137.90 107.44 136.53 111.69
  C 134.60 117.70 131.79 123.57 129.61 129.55
  A 0.39 0.38 43.0 0 1 128.90 129.57"
/>
</g>
<path fill="#1479fb" d="
  M 0.00 0.00
  L 804.00 0.00
  L 804.00 376.00
  L 0.00 376.00
  L 0.00 0.00
  Z
  M 127.22 313.40
  L 127.26 300.99
  Q 127.26 300.43 127.76 300.18
  Q 144.83 291.55 161.30 281.85
  C 172.96 274.98 185.39 265.90 193.07 254.56
  C 210.02 229.54 214.41 195.88 210.25 166.50
  Q 208.78 156.09 203.96 146.84
  C 202.85 144.70 201.42 143.15 199.78 141.40
  Q 199.43 141.03 199.75 140.63
  C 201.08 138.99 202.53 137.49 203.59 135.78
  C 215.82 116.18 214.24 89.60 206.92 68.47
  C 204.83 62.43 200.36 57.47 199.26 51.17
  C 197.19 39.38 204.29 28.67 215.03 24.02
  Q 217.49 22.95 217.12 20.45
  C 216.16 13.99 203.05 12.45 198.25 12.56
  Q 187.02 12.83 176.94 17.42
  C 173.14 19.16 170.29 21.76 167.65 24.88
  A 1.14 1.13 34.7 0 1 166.23 25.13
  C 147.96 14.78 121.54 15.66 102.00 21.02
  Q 96.91 22.42 91.74 25.83
  Q 91.28 26.14 90.95 25.68
  Q 88.87 22.80 85.93 20.83
  C 76.33 14.39 55.49 6.59 46.37 17.24
  C 44.76 19.11 44.30 22.05 46.58 23.43
  Q 51.52 26.41 54.94 29.06
  C 57.87 31.32 63.65 37.38 63.51 41.51
  Q 63.29 47.94 59.82 53.81
  C 54.94 62.09 49.27 72.26 46.57 82.76
  C 43.90 93.11 44.85 106.14 46.99 116.25
  Q 48.41 122.93 53.57 134.79
  Q 53.79 135.28 53.35 135.61
  Q 35.78 148.55 24.38 166.79
  C 14.07 183.28 7.66 204.79 6.49 223.75
  Q 4.99 248.16 8.46 268.50
  Q 10.97 283.23 11.87 286.92
  Q 14.40 297.35 22.23 324.25
  Q 24.57 332.29 31.23 359.62
  C 31.95 362.54 34.75 362.43 36.99 361.68
  Q 37.49 361.51 37.72 361.03
  C 40.55 355.04 43.29 351.15 49.64 345.39
  C 60.48 335.55 73.40 327.97 86.31 321.19
  A 0.21 0.21 0.0 0 1 86.62 321.39
  C 86.44 324.71 84.63 337.60 92.00 334.50
  C 99.64 331.30 107.28 329.52 114.04 335.25
  Q 116.99 337.74 120.01 347.38
  Q 121.03 350.61 124.36 350.05
  L 125.13 349.92
  A 2.61 2.61 0.0 0 0 127.25 346.82
  C 124.44 333.18 116.60 323.58 101.69 324.47
  C 99.48 324.60 97.06 325.40 94.66 325.80
  Q 94.00 325.91 94.00 325.25
  L 94.00 317.91
  A 1.04 1.04 0.0 0 1 94.57 316.98
  L 119.51 304.19
  A 0.32 0.32 0.0 0 1 119.98 304.47
  Q 119.98 313.15 120.20 322.00
  C 120.28 325.03 124.00 326.40 126.19 324.41
  Q 132.81 318.38 141.13 315.61
  C 151.03 312.30 158.53 317.02 163.31 325.60
  Q 165.15 328.92 168.33 326.84
  L 168.91 326.46
  A 2.99 2.98 58.6 0 0 169.87 322.50
  C 164.17 312.42 155.91 305.67 143.75 307.46
  Q 135.04 308.74 127.79 313.69
  Q 127.22 314.08 127.22 313.40
  Z
  M 798.10 83.48
  A 18.52 18.52 0.0 0 0 779.58 64.96
  A 18.52 18.52 0.0 0 0 761.06 83.48
  A 18.52 18.52 0.0 0 0 779.58 102.00
  A 18.52 18.52 0.0 0 0 798.10 83.48
  Z
  M 296.24 65.57
  A 0.32 0.32 0.0 0 0 295.92 65.25
  L 270.32 65.25
  A 0.32 0.32 0.0 0 0 270.00 65.57
  L 270.00 312.19
  A 0.32 0.32 0.0 0 0 270.32 312.51
  L 295.92 312.51
  A 0.32 0.32 0.0 0 0 296.24 312.19
  L 296.24 65.57
  Z
  M 390.48 174.52
  L 390.51 144.26
  Q 390.51 143.75 390.01 143.75
  L 366.96 143.74
  Q 366.50 143.74 366.50 144.20
  L 366.50 311.98
  Q 366.50 312.51 367.03 312.51
  L 390.75 312.49
  Q 391.25 312.49 391.25 311.99
  Q 391.25 266.88 391.25 221.78
  Q 391.25 208.53 392.70 202.36
  C 397.73 181.01 414.10 165.22 436.39 163.46
  C 458.85 161.69 476.14 170.23 484.27 191.70
  C 487.18 199.38 487.76 208.07 487.76 215.76
  Q 487.74 263.86 487.75 312.00
  Q 487.75 312.50 488.26 312.50
  L 512.03 312.50
  Q 512.52 312.50 512.52 312.01
  Q 512.50 259.76 512.40 207.50
  C 512.35 186.33 505.40 164.17 487.32 151.63
  C 467.00 137.52 435.37 137.20 414.41 149.90
  Q 399.55 158.91 390.77 174.60
  Q 390.48 175.11 390.48 174.52
  Z
  M 638.61 284.93
  L 581.45 144.24
  Q 581.25 143.75 580.72 143.75
  L 554.53 143.75
  Q 553.98 143.75 554.20 144.25
  L 625.32 312.11
  Q 625.48 312.50 625.91 312.50
  L 651.22 312.50
  Q 651.74 312.50 651.95 312.02
  L 723.54 144.23
  Q 723.74 143.74 723.22 143.74
  L 698.02 143.74
  Q 697.49 143.74 697.28 144.24
  L 638.87 284.93
  Q 638.74 285.24 638.61 284.93
  Z
  M 792.00 144.09
  A 0.35 0.35 0.0 0 0 791.65 143.74
  L 767.35 143.74
  A 0.35 0.35 0.0 0 0 767.00 144.09
  L 767.00 312.15
  A 0.35 0.35 0.0 0 0 767.35 312.50
  L 791.65 312.50
  A 0.35 0.35 0.0 0 0 792.00 312.15
  L 792.00 144.09
  Z"
/>
<path fill="#ffffff" d="
  M 127.79 313.69
  Q 135.04 308.74 143.75 307.46
  C 155.91 305.67 164.17 312.42 169.87 322.50
  A 2.99 2.98 58.6 0 1 168.91 326.46
  L 168.33 326.84
  Q 165.15 328.92 163.31 325.60
  C 158.53 317.02 151.03 312.30 141.13 315.61
  Q 132.81 318.38 126.19 324.41
  C 124.00 326.40 120.28 325.03 120.20 322.00
  Q 119.98 313.15 119.98 304.47
  A 0.32 0.32 0.0 0 0 119.51 304.19
  L 94.57 316.98
  A 1.04 1.04 0.0 0 0 94.00 317.91
  L 94.00 325.25
  Q 94.00 325.91 94.66 325.80
  C 97.06 325.40 99.48 324.60 101.69 324.47
  C 116.60 323.58 124.44 333.18 127.25 346.82
  A 2.61 2.61 0.0 0 1 125.13 349.92
  L 124.36 350.05
  Q 121.03 350.61 120.01 347.38
  Q 116.99 337.74 114.04 335.25
  C 107.28 329.52 99.64 331.30 92.00 334.50
  C 84.63 337.60 86.44 324.71 86.62 321.39
  A 0.21 0.21 0.0 0 0 86.31 321.19
  C 73.40 327.97 60.48 335.55 49.64 345.39
  C 43.29 351.15 40.55 355.04 37.72 361.03
  Q 37.49 361.51 36.99 361.68
  C 34.75 362.43 31.95 362.54 31.23 359.62
  Q 24.57 332.29 22.23 324.25
  Q 14.40 297.35 11.87 286.92
  Q 10.97 283.23 8.46 268.50
  Q 4.99 248.16 6.49 223.75
  C 7.66 204.79 14.07 183.28 24.38 166.79
  Q 35.78 148.55 53.35 135.61
  Q 53.79 135.28 53.57 134.79
  Q 48.41 122.93 46.99 116.25
  C 44.85 106.14 43.90 93.11 46.57 82.76
  C 49.27 72.26 54.94 62.09 59.82 53.81
  Q 63.29 47.94 63.51 41.51
  C 63.65 37.38 57.87 31.32 54.94 29.06
  Q 51.52 26.41 46.58 23.43
  C 44.30 22.05 44.76 19.11 46.37 17.24
  C 55.49 6.59 76.33 14.39 85.93 20.83
  Q 88.87 22.80 90.95 25.68
  Q 91.28 26.14 91.74 25.83
  Q 96.91 22.42 102.00 21.02
  C 121.54 15.66 147.96 14.78 166.23 25.13
  A 1.14 1.13 34.7 0 0 167.65 24.88
  C 170.29 21.76 173.14 19.16 176.94 17.42
  Q 187.02 12.83 198.25 12.56
  C 203.05 12.45 216.16 13.99 217.12 20.45
  Q 217.49 22.95 215.03 24.02
  C 204.29 28.67 197.19 39.38 199.26 51.17
  C 200.36 57.47 204.83 62.43 206.92 68.47
  C 214.24 89.60 215.82 116.18 203.59 135.78
  C 202.53 137.49 201.08 138.99 199.75 140.63
  Q 199.43 141.03 199.78 141.40
  C 201.42 143.15 202.85 144.70 203.96 146.84
  Q 208.78 156.09 210.25 166.50
  C 214.41 195.88 210.02 229.54 193.07 254.56
  C 185.39 265.90 172.96 274.98 161.30 281.85
  Q 144.83 291.55 127.76 300.18
  Q 127.26 300.43 127.26 300.99
  L 127.22 313.40
  Q 127.22 314.08 127.79 313.69
  Z
  M 87.89 34.79
  C 86.00 31.31 85.50 29.30 81.44 26.55
  C 74.37 21.77 63.99 18.04 55.39 19.76
  Q 54.88 19.87 55.31 20.15
  C 64.64 26.35 73.64 36.58 70.03 47.99
  C 65.34 62.82 54.27 73.87 52.79 89.51
  C 50.90 109.47 56.56 131.65 71.08 146.42
  A 3.50 3.50 0.0 0 1 70.79 151.59
  L 70.27 152.02
  A 3.14 3.13 47.3 0 1 66.12 151.85
  Q 61.41 147.35 57.92 141.87
  A 0.24 0.24 0.0 0 0 57.56 141.82
  C 53.23 145.57 48.39 149.09 44.67 152.93
  C 18.20 180.29 10.53 218.46 14.34 255.51
  C 17.20 283.38 26.12 308.89 33.20 336.34
  Q 33.28 336.63 33.24 337.13
  Q 33.22 337.57 33.37 337.97
  Q 33.65 338.69 33.71 337.92
  Q 34.82 322.17 34.00 306.42
  C 33.60 298.77 33.87 293.08 37.55 287.25
  C 44.37 276.46 53.87 267.76 63.92 258.42
  Q 72.92 250.05 82.81 237.82
  C 96.74 220.59 104.11 201.09 101.76 177.96
  A 2.82 2.81 85.3 0 1 104.38 174.86
  L 105.29 174.80
  Q 108.94 174.57 109.27 178.22
  Q 111.79 206.48 97.13 230.18
  Q 88.43 244.24 81.97 250.72
  Q 67.30 265.43 52.57 280.07
  C 48.49 284.11 41.05 292.98 41.22 298.98
  C 41.64 314.18 42.30 328.97 40.48 344.14
  Q 40.41 344.66 40.76 344.28
  C 52.47 331.26 68.53 323.00 83.89 314.38
  Q 90.02 310.95 96.91 307.53
  Q 122.23 294.96 147.18 281.67
  C 155.74 277.11 165.77 270.94 172.04 265.81
  Q 181.32 258.22 183.68 255.16
  C 202.99 230.08 207.59 196.44 202.67 165.93
  C 201.77 160.37 198.97 148.06 193.43 145.90
  Q 190.47 144.74 189.92 144.10
  C 188.04 141.88 189.80 139.77 191.68 138.12
  C 201.12 129.82 204.91 116.50 205.22 104.25
  C 205.56 90.74 203.48 76.21 196.77 64.27
  C 193.92 59.20 192.12 55.99 191.68 51.25
  Q 190.22 35.32 201.90 23.90
  Q 203.59 22.25 205.38 20.67
  Q 205.70 20.39 205.27 20.38
  Q 203.57 20.34 199.26 20.07
  C 192.83 19.67 174.81 23.14 172.48 31.58
  C 171.22 36.10 168.33 35.65 165.14 33.09
  Q 163.00 31.38 160.26 30.20
  C 142.23 22.48 121.30 23.14 103.33 28.14
  Q 98.90 29.36 95.15 31.98
  Q 94.69 32.30 94.49 32.83
  Q 92.88 37.14 88.62 35.44
  Q 88.13 35.25 87.89 34.79
  Z"
/>
<path fill="#1479fb" d="
  M 88.62 35.44
  Q 92.88 37.14 94.49 32.83
  Q 94.69 32.30 95.15 31.98
  Q 98.90 29.36 103.33 28.14
  C 121.30 23.14 142.23 22.48 160.26 30.20
  Q 163.00 31.38 165.14 33.09
  C 168.33 35.65 171.22 36.10 172.48 31.58
  C 174.81 23.14 192.83 19.67 199.26 20.07
  Q 203.57 20.34 205.27 20.38
  Q 205.70 20.39 205.38 20.67
  Q 203.59 22.25 201.90 23.90
  Q 190.22 35.32 191.68 51.25
  C 192.12 55.99 193.92 59.20 196.77 64.27
  C 203.48 76.21 205.56 90.74 205.22 104.25
  C 204.91 116.50 201.12 129.82 191.68 138.12
  C 189.80 139.77 188.04 141.88 189.92 144.10
  Q 190.47 144.74 193.43 145.90
  C 198.97 148.06 201.77 160.37 202.67 165.93
  C 207.59 196.44 202.99 230.08 183.68 255.16
  Q 181.32 258.22 172.04 265.81
  C 165.77 270.94 155.74 277.11 147.18 281.67
  Q 122.23 294.96 96.91 307.53
  Q 90.02 310.95 83.89 314.38
  C 68.53 323.00 52.47 331.26 40.76 344.28
  Q 40.41 344.66 40.48 344.14
  C 42.30 328.97 41.64 314.18 41.22 298.98
  C 41.05 292.98 48.49 284.11 52.57 280.07
  Q 67.30 265.43 81.97 250.72
  Q 88.43 244.24 97.13 230.18
  Q 111.79 206.48 109.27 178.22
  Q 108.94 174.57 105.29 174.80
  L 104.38 174.86
  A 2.82 2.81 85.3 0 0 101.76 177.96
  C 104.11 201.09 96.74 220.59 82.81 237.82
  Q 72.92 250.05 63.92 258.42
  C 53.87 267.76 44.37 276.46 37.55 287.25
  C 33.87 293.08 33.60 298.77 34.00 306.42
  Q 34.82 322.17 33.71 337.92
  Q 33.65 338.69 33.37 337.97
  Q 33.22 337.57 33.24 337.13
  Q 33.28 336.63 33.20 336.34
  C 26.12 308.89 17.20 283.38 14.34 255.51
  C 10.53 218.46 18.20 180.29 44.67 152.93
  C 48.39 149.09 53.23 145.57 57.56 141.82
  A 0.24 0.24 0.0 0 1 57.92 141.87
  Q 61.41 147.35 66.12 151.85
  A 3.14 3.13 47.3 0 0 70.27 152.02
  L 70.79 151.59
  A 3.50 3.50 0.0 0 0 71.08 146.42
  C 56.56 131.65 50.90 109.47 52.79 89.51
  C 54.27 73.87 65.34 62.82 70.03 47.99
  C 73.64 36.58 64.64 26.35 55.31 20.15
  Q 54.88 19.87 55.39 19.76
  C 63.99 18.04 74.37 21.77 81.44 26.55
  C 85.50 29.30 86.00 31.31 87.89 34.79
  Q 88.13 35.25 88.62 35.44
  Z
  M 129.35 68.68
  A 0.28 0.27 -43.5 0 1 128.86 68.67
  C 126.44 63.61 122.76 57.87 117.93 54.80
  C 117.09 54.27 116.56 53.52 115.86 52.83
  Q 115.48 52.47 114.96 52.47
  Q 114.31 52.49 113.99 51.97
  Q 113.76 51.61 113.38 51.42
  Q 103.87 46.58 93.98 46.98
  C 74.86 47.75 65.30 63.94 62.84 81.01
  Q 59.73 102.55 67.20 122.56
  C 71.99 135.36 83.06 143.27 95.51 148.21
  C 112.41 154.91 131.19 157.33 149.02 153.06
  Q 165.05 149.23 176.14 139.63
  Q 184.26 132.61 187.81 125.77
  C 190.11 121.34 192.75 116.70 194.15 112.12
  C 200.19 92.40 196.44 68.34 179.49 54.60
  C 178.79 54.03 177.98 53.90 177.28 53.31
  C 172.17 48.97 161.55 46.19 154.95 47.65
  C 143.08 50.29 135.02 58.30 129.35 68.68
  Z
  M 93.03 210.29
  Q 96.12 203.78 95.03 196.87
  Q 94.53 193.68 91.31 193.96
  L 90.51 194.03
  A 2.72 2.71 86.6 0 0 88.03 196.83
  C 88.34 205.32 86.20 214.96 75.47 213.59
  C 69.48 212.83 68.85 203.22 69.44 198.58
  Q 69.88 195.09 66.53 194.00
  L 65.90 193.79
  A 2.70 2.70 0.0 0 0 62.44 195.74
  Q 60.76 202.94 62.93 210.26
  C 66.55 222.48 80.99 224.17 89.60 216.26
  C 91.31 214.68 92.03 212.39 93.03 210.29
  Z
  M 59.42 238.42
  C 56.64 242.65 48.57 245.16 45.28 239.85
  C 42.95 236.07 42.83 232.35 43.04 228.00
  C 43.21 224.63 42.09 222.55 38.52 222.75
  Q 38.02 222.78 37.66 223.12
  Q 35.69 224.91 35.54 227.51
  C 34.91 237.86 38.19 249.69 50.75 250.01
  C 64.49 250.37 70.26 237.29 68.73 225.15
  A 2.62 2.62 0.0 0 0 65.77 222.89
  L 65.04 222.99
  Q 61.75 223.45 61.84 226.77
  Q 62.04 234.43 59.42 238.42
  Z"
/>
<path fill="#ffffff" d="
  M 129.35 68.68
  C 135.02 58.30 143.08 50.29 154.95 47.65
  C 161.55 46.19 172.17 48.97 177.28 53.31
  C 177.98 53.90 178.79 54.03 179.49 54.60
  C 196.44 68.34 200.19 92.40 194.15 112.12
  C 192.75 116.70 190.11 121.34 187.81 125.77
  Q 184.26 132.61 176.14 139.63
  Q 165.05 149.23 149.02 153.06
  C 131.19 157.33 112.41 154.91 95.51 148.21
  C 83.06 143.27 71.99 135.36 67.20 122.56
  Q 59.73 102.55 62.84 81.01
  C 65.30 63.94 74.86 47.75 93.98 46.98
  Q 103.87 46.58 113.38 51.42
  Q 113.76 51.61 113.99 51.97
  Q 114.31 52.49 114.96 52.47
  Q 115.48 52.47 115.86 52.83
  C 116.56 53.52 117.09 54.27 117.93 54.80
  C 122.76 57.87 126.44 63.61 128.86 68.67
  A 0.28 0.27 -43.5 0 0 129.35 68.68
  Z
  M 171.09 58.16
  Q 170.76 57.58 170.11 57.51
  Q 169.71 57.47 169.37 57.29
  C 150.57 47.67 136.98 66.48 131.34 81.31
  A 1.57 1.56 82.8 0 1 130.77 82.05
  C 127.15 84.60 125.13 82.08 124.44 78.54
  C 121.36 62.80 106.54 52.36 90.94 54.90
  Q 80.74 56.55 75.76 65.84
  C 75.25 66.80 74.44 67.45 73.93 68.71
  C 67.42 84.98 67.89 102.99 73.78 119.23
  C 78.53 132.32 91.50 139.70 104.33 143.60
  C 120.59 148.54 137.15 149.73 153.08 144.19
  Q 163.21 140.66 170.55 134.68
  C 186.73 121.51 193.56 99.26 187.19 79.01
  C 186.69 77.40 185.82 75.78 185.21 74.09
  C 183.00 67.93 179.04 63.05 173.56 59.47
  Q 173.22 59.25 172.98 58.91
  Q 172.59 58.34 171.94 58.52
  Q 171.38 58.67 171.09 58.16
  Z"
/>
<path fill="#1479fb" d="
  M 171.94 58.52
  Q 172.59 58.34 172.98 58.91
  Q 173.22 59.25 173.56 59.47
  C 179.04 63.05 183.00 67.93 185.21 74.09
  C 185.82 75.78 186.69 77.40 187.19 79.01
  C 193.56 99.26 186.73 121.51 170.55 134.68
  Q 163.21 140.66 153.08 144.19
  C 137.15 149.73 120.59 148.54 104.33 143.60
  C 91.50 139.70 78.53 132.32 73.78 119.23
  C 67.89 102.99 67.42 84.98 73.93 68.71
  C 74.44 67.45 75.25 66.80 75.76 65.84
  Q 80.74 56.55 90.94 54.90
  C 106.54 52.36 121.36 62.80 124.44 78.54
  C 125.13 82.08 127.15 84.60 130.77 82.05
  A 1.57 1.56 82.8 0 0 131.34 81.31
  C 136.98 66.48 150.57 47.67 169.37 57.29
  Q 169.71 57.47 170.11 57.51
  Q 170.76 57.58 171.09 58.16
  Q 171.38 58.67 171.94 58.52
  Z
  M 99.57 87.31
  C 100.93 87.91 102.19 89.10 103.63 90.11
  Q 107.25 92.66 108.03 99.58
  Q 108.42 103.08 111.93 102.78
  L 112.65 102.72
  A 2.84 2.83 -3.5 0 0 115.25 99.79
  Q 114.89 89.58 107.52 83.57
  C 106.85 83.02 105.97 82.91 105.28 82.29
  C 102.01 79.37 96.96 78.68 93.18 77.89
  C 90.55 77.34 88.17 77.62 85.55 77.42
  C 82.52 77.20 80.33 78.16 80.31 81.42
  Q 80.31 81.90 80.59 82.28
  L 81.92 84.06
  A 1.24 1.20 -15.5 0 0 82.82 84.55
  C 88.70 84.96 93.66 84.69 99.57 87.31
  Z
  M 143.85 91.67
  Q 141.99 96.00 142.34 100.34
  A 2.79 2.78 8.6 0 0 144.10 102.72
  C 147.97 104.24 149.11 101.50 149.60 98.24
  C 151.23 87.13 162.68 84.96 172.67 84.86
  C 178.74 84.80 177.66 76.93 172.02 77.30
  Q 168.94 77.50 165.90 77.78
  C 156.60 78.63 147.73 82.65 143.85 91.67
  Z
  M 128.90 129.57
  L 119.89 109.67
  A 0.42 0.41 87.7 0 0 119.67 109.46
  Q 115.54 107.61 113.62 111.11
  A 1.42 1.39 56.3 0 0 113.46 111.97
  Q 113.80 114.36 114.22 115.25
  Q 120.06 127.64 125.56 140.19
  C 127.11 143.74 131.46 144.33 133.03 140.30
  Q 137.18 129.62 141.35 118.94
  C 142.06 117.13 143.32 115.49 143.61 113.55
  C 144.50 107.70 137.90 107.44 136.53 111.69
  C 134.60 117.70 131.79 123.57 129.61 129.55
  A 0.39 0.38 43.0 0 1 128.90 129.57
  Z"
/>
<circle fill="#ffffff" cx="779.58" cy="83.48" r="18.52"/>
<rect fill="#ffffff" x="270.00" y="65.25" width="26.24" height="247.26" rx="0.32"/>
<path fill="#ffffff" d="
  M 99.57 87.31
  C 93.66 84.69 88.70 84.96 82.82 84.55
  A 1.24 1.20 -15.5 0 1 81.92 84.06
  L 80.59 82.28
  Q 80.31 81.90 80.31 81.42
  C 80.33 78.16 82.52 77.20 85.55 77.42
  C 88.17 77.62 90.55 77.34 93.18 77.89
  C 96.96 78.68 102.01 79.37 105.28 82.29
  C 105.97 82.91 106.85 83.02 107.52 83.57
  Q 114.89 89.58 115.25 99.79
  A 2.84 2.83 -3.5 0 1 112.65 102.72
  L 111.93 102.78
  Q 108.42 103.08 108.03 99.58
  Q 107.25 92.66 103.63 90.11
  C 102.19 89.10 100.93 87.91 99.57 87.31
  Z"
/>
<path fill="#ffffff" d="
  M 143.85 91.67
  C 147.73 82.65 156.60 78.63 165.90 77.78
  Q 168.94 77.50 172.02 77.30
  C 177.66 76.93 178.74 84.80 172.67 84.86
  C 162.68 84.96 151.23 87.13 149.60 98.24
  C 149.11 101.50 147.97 104.24 144.10 102.72
  A 2.79 2.78 8.6 0 1 142.34 100.34
  Q 141.99 96.00 143.85 91.67
  Z"
/>
<path fill="#ffffff" d="
  M 128.90 129.57
  A 0.39 0.38 43.0 0 0 129.61 129.55
  C 131.79 123.57 134.60 117.70 136.53 111.69
  C 137.90 107.44 144.50 107.70 143.61 113.55
  C 143.32 115.49 142.06 117.13 141.35 118.94
  Q 137.18 129.62 133.03 140.30
  C 131.46 144.33 127.11 143.74 125.56 140.19
  Q 120.06 127.64 114.22 115.25
  Q 113.80 114.36 113.46 111.97
  A 1.42 1.39 56.3 0 1 113.62 111.11
  Q 115.54 107.61 119.67 109.46
  A 0.42 0.41 87.7 0 1 119.89 109.67
  L 128.90 129.57
  Z"
/>
<path fill="#ffffff" d="
  M 390.77 174.60
  Q 399.55 158.91 414.41 149.90
  C 435.37 137.20 467.00 137.52 487.32 151.63
  C 505.40 164.17 512.35 186.33 512.40 207.50
  Q 512.50 259.76 512.52 312.01
  Q 512.52 312.50 512.03 312.50
  L 488.26 312.50
  Q 487.75 312.50 487.75 312.00
  Q 487.74 263.86 487.76 215.76
  C 487.76 208.07 487.18 199.38 484.27 191.70
  C 476.14 170.23 458.85 161.69 436.39 163.46
  C 414.10 165.22 397.73 181.01 392.70 202.36
  Q 391.25 208.53 391.25 221.78
  Q 391.25 266.88 391.25 311.99
  Q 391.25 312.49 390.75 312.49
  L 367.03 312.51
  Q 366.50 312.51 366.50 311.98
  L 366.50 144.20
  Q 366.50 143.74 366.96 143.74
  L 390.01 143.75
  Q 390.51 143.75 390.51 144.26
  L 390.48 174.52
  Q 390.48 175.11 390.77 174.60
  Z"
/>
<path fill="#ffffff" d="
  M 638.61 284.93
  Q 638.74 285.24 638.87 284.93
  L 697.28 144.24
  Q 697.49 143.74 698.02 143.74
  L 723.22 143.74
  Q 723.74 143.74 723.54 144.23
  L 651.95 312.02
  Q 651.74 312.50 651.22 312.50
  L 625.91 312.50
  Q 625.48 312.50 625.32 312.11
  L 554.20 144.25
  Q 553.98 143.75 554.53 143.75
  L 580.72 143.75
  Q 581.25 143.75 581.45 144.24
  L 638.61 284.93
  Z"
/>
<rect fill="#ffffff" x="767.00" y="143.74" width="25.00" height="168.76" rx="0.35"/>
<path fill="#ffffff" d="
  M 93.03 210.29
  C 92.03 212.39 91.31 214.68 89.60 216.26
  C 80.99 224.17 66.55 222.48 62.93 210.26
  Q 60.76 202.94 62.44 195.74
  A 2.70 2.70 0.0 0 1 65.90 193.79
  L 66.53 194.00
  Q 69.88 195.09 69.44 198.58
  C 68.85 203.22 69.48 212.83 75.47 213.59
  C 86.20 214.96 88.34 205.32 88.03 196.83
  A 2.72 2.71 86.6 0 1 90.51 194.03
  L 91.31 193.96
  Q 94.53 193.68 95.03 196.87
  Q 96.12 203.78 93.03 210.29
  Z"
/>
<path fill="#ffffff" d="
  M 59.42 238.42
  Q 62.04 234.43 61.84 226.77
  Q 61.75 223.45 65.04 222.99
  L 65.77 222.89
  A 2.62 2.62 0.0 0 1 68.73 225.15
  C 70.26 237.29 64.49 250.37 50.75 250.01
  C 38.19 249.69 34.91 237.86 35.54 227.51
  Q 35.69 224.91 37.66 223.12
  Q 38.02 222.78 38.52 222.75
  C 42.09 222.55 43.21 224.63 43.04 228.00
  C 42.83 232.35 42.95 236.07 45.28 239.85
  C 48.57 245.16 56.64 242.65 59.42 238.42
  Z"
/>
</svg>
